<?xml version="1.0" standalone="no"?>
<!DOCTYPE svg PUBLIC "-//W3C//DTD SVG 20010904//EN"
 "http://www.w3.org/TR/2001/REC-SVG-20010904/DTD/svg10.dtd">
<svg version="1.0" xmlns="http://www.w3.org/2000/svg"
 width="70.000000pt" height="51.000000pt" viewBox="0 0 70.000000 51.000000"
 preserveAspectRatio="xMidYMid meet">
<metadata>
Created by potrace 1.16, written by Peter Selinger 2001-2019
</metadata>
<g transform="translate(0.000000,51.000000) scale(0.100000,-0.100000)"
fill="#000000" stroke="none">
<path d="M145 385 c-35 -34 -31 -63 15 -119 26 -31 40 -58 40 -77 0 -35 -30
-55 -60 -39 -26 14 -26 46 0 60 25 14 17 30 -15 30 -33 0 -58 -39 -49 -75 16
-63 127 -67 174 -7 29 36 21 72 -30 129 -43 49 -49 73 -25 93 25 21 48 4 41
-31 -5 -27 -3 -30 17 -27 14 2 23 11 25 26 9 60 -85 86 -133 37z"/>
<path d="M385 395 c-62 -32 -86 -93 -45 -115 18 -10 20 -8 20 24 0 33 32 87
44 75 4 -4 -14 -62 -39 -129 -25 -67 -43 -125 -41 -128 14 -13 34 13 56 74
l25 69 3 -72 3 -73 29 0 c17 0 30 5 31 13 0 6 14 39 30 72 l29 60 -6 -55 c-3
-30 -8 -63 -10 -72 -4 -14 1 -18 25 -18 35 0 33 -6 56 153 20 141 20 137 -14
137 -26 0 -31 -6 -66 -90 -21 -49 -40 -90 -43 -90 -3 0 -2 41 1 90 l6 90 -32
0 c-18 0 -45 -7 -62 -15z"/>
</g>
</svg>
